<?xml version="1.0" standalone="no"?>
<svg xmlns:xlink="http://www.w3.org/1999/xlink" id="wave" style="transform:rotate(180deg); transition: 0.3s" viewBox="0 0 1440 100" version="1.1" xmlns="http://www.w3.org/2000/svg"><defs><linearGradient id="sw-gradient-0" x1="0" x2="0" y1="1" y2="0"><stop stop-color="rgba(255, 249, 234, 1)" offset="0%"/><stop stop-color="rgba(255, 249, 234, 1)" offset="100%"/></linearGradient></defs><path style="transform:translate(0, 0px); opacity:1" fill="url(#sw-gradient-0)" d="M0,0L40,10C80,20,160,40,240,53.3C320,67,400,73,480,66.7C560,60,640,40,720,26.7C800,13,880,7,960,6.7C1040,7,1120,13,1200,20C1280,27,1360,33,1440,40C1520,47,1600,53,1680,58.3C1760,63,1840,67,1920,61.7C2000,57,2080,43,2160,31.7C2240,20,2320,10,2400,16.7C2480,23,2560,47,2640,60C2720,73,2800,77,2880,68.3C2960,60,3040,40,3120,31.7C3200,23,3280,27,3360,23.3C3440,20,3520,10,3600,13.3C3680,17,3760,33,3840,48.3C3920,63,4000,77,4080,78.3C4160,80,4240,70,4320,58.3C4400,47,4480,33,4560,25C4640,17,4720,13,4800,25C4880,37,4960,63,5040,66.7C5120,70,5200,50,5280,50C5360,50,5440,70,5520,70C5600,70,5680,50,5720,40L5760,30L5760,100L5720,100C5680,100,5600,100,5520,100C5440,100,5360,100,5280,100C5200,100,5120,100,5040,100C4960,100,4880,100,4800,100C4720,100,4640,100,4560,100C4480,100,4400,100,4320,100C4240,100,4160,100,4080,100C4000,100,3920,100,3840,100C3760,100,3680,100,3600,100C3520,100,3440,100,3360,100C3280,100,3200,100,3120,100C3040,100,2960,100,2880,100C2800,100,2720,100,2640,100C2560,100,2480,100,2400,100C2320,100,2240,100,2160,100C2080,100,2000,100,1920,100C1840,100,1760,100,1680,100C1600,100,1520,100,1440,100C1360,100,1280,100,1200,100C1120,100,1040,100,960,100C880,100,800,100,720,100C640,100,560,100,480,100C400,100,320,100,240,100C160,100,80,100,40,100L0,100Z"/></svg>